<svg id="Agreement" xmlns="http://www.w3.org/2000/svg" width="14" height="16" viewBox="0 0 14 16">
  <path id="Path_251" data-name="Path 251" d="M10.854,7.146a.5.5,0,0,1,0,.708l-3,3a.5.5,0,0,1-.708,0l-1.5-1.5a.5.5,0,1,1,.708-.708L7.5,9.793l2.646-2.647a.5.5,0,0,1,.708,0Z" transform="translate(-1)" fill="#b6b6b6" fill-rule="evenodd"/>
  <path id="Path_252" data-name="Path 252" d="M4,1.5H3a2,2,0,0,0-2,2V14a2,2,0,0,0,2,2H13a2,2,0,0,0,2-2V3.5a2,2,0,0,0-2-2H12v1h1a1,1,0,0,1,1,1V14a1,1,0,0,1-1,1H3a1,1,0,0,1-1-1V3.5a1,1,0,0,1,1-1H4Z" transform="translate(-1)" fill="#b6b6b6"/>
  <path id="Path_253" data-name="Path 253" d="M9.5,1a.5.5,0,0,1,.5.5v1a.5.5,0,0,1-.5.5h-3A.5.5,0,0,1,6,2.5v-1A.5.5,0,0,1,6.5,1Zm-3-1A1.5,1.5,0,0,0,5,1.5v1A1.5,1.5,0,0,0,6.5,4h3A1.5,1.5,0,0,0,11,2.5v-1A1.5,1.5,0,0,0,9.5,0Z" transform="translate(-1)" fill="#b6b6b6"/>
</svg>
