<?xml version="1.0" encoding="utf-8"?>
<!-- Generator: Adobe Illustrator 23.1.0, SVG Export Plug-In . SVG Version: 6.00 Build 0)  -->
<svg version="1.1" id="Layer_1" xmlns="http://www.w3.org/2000/svg" xmlns:xlink="http://www.w3.org/1999/xlink" x="0px" y="0px"
	 viewBox="0 0 24 25" style="enable-background:new 0 0 24 25;" xml:space="preserve">
<style type="text/css">
	.st0{fill-rule:evenodd;clip-rule:evenodd;fill:#595959;}
	.st1{fill-rule:evenodd;clip-rule:evenodd;fill:none;}
</style>
<path class="st0" d="M12.6,8.8l2.1,8.9c0.2,0.7-0.3,1.4-1,1.6l-1.4,0.3c-0.7,0.2-1.4-0.3-1.6-1L8.6,9.7C8.5,9,8.9,8.3,9.6,8.2
	L11,7.8C11.7,7.7,12.4,8.1,12.6,8.8z M7.1,5.7c0.7,0,1.3,0.6,1.3,1.3v11.3c0,0.7-0.6,1.3-1.3,1.3H5.6c-0.7,0-1.3-0.6-1.3-1.3V7
	c0-0.7,0.6-1.3,1.3-1.3H7.1z M2.8,7.8c0.7,0,1.3,0.6,1.3,1.3v9.1c0,0.7-0.6,1.3-1.3,1.3H1.3C0.6,19.6,0,19,0,18.3V9.2
	c0-0.7,0.6-1.3,1.3-1.3C1.3,7.8,2.8,7.8,2.8,7.8z M11.3,9L9.9,9.3c-0.1,0-0.1,0.1-0.1,0.1l2.1,8.9c0,0.1,0.1,0.1,0.1,0.1l1.4-0.3
	c0.1,0,0.1-0.1,0.1-0.1l-2.1-8.9C11.4,9,11.4,9,11.3,9z M2.8,9H1.3C1.3,9,1.2,9.1,1.2,9.2v9.1c0,0.1,0.1,0.1,0.1,0.1h1.4
	c0.1,0,0.1-0.1,0.1-0.1V9.2C2.9,9.1,2.8,9,2.8,9z M7.1,6.9H5.6C5.6,6.9,5.5,6.9,5.5,7v11.3c0,0.1,0.1,0.1,0.1,0.1h1.4
	c0.1,0,0.1-0.1,0.1-0.1V7C7.2,6.9,7.1,6.9,7.1,6.9z"/>
<rect class="st1" width="24" height="25"/>
</svg>
