<svg id="BookCover" xmlns="http://www.w3.org/2000/svg" width="398" height="600" viewBox="0 0 398 600">
  <g id="Rectangle_182" data-name="Rectangle 182" fill="#fff" stroke="#707070" stroke-width="1">
    <rect width="398" height="600" stroke="none"/>
    <rect x="0.5" y="0.5" width="397" height="599" fill="none"/>
  </g>
  <g id="logoblack" transform="translate(40 250.88)">
    <path id="Path_239" data-name="Path 239" d="M37.273,28.888,52.348,13.224a5.535,5.535,0,0,0,1.531-3.592A5.3,5.3,0,0,0,52.23,5.8a4.711,4.711,0,0,0-3.474-1.413,5.418,5.418,0,0,0-4,1.825L28.5,23.883a7.184,7.184,0,0,0-2.179,5.005,7.891,7.891,0,0,0,2.3,5.3L45.223,52.619a5.359,5.359,0,0,0,7.832,0,5.889,5.889,0,0,0,1.708-3.945,5.476,5.476,0,0,0-1.708-3.887Z" transform="translate(128.67 20.874)" fill="#1d252c"/>
    <path id="Path_240" data-name="Path 240" d="M53.534,4.393H21.264a4.652,4.652,0,0,0-4.829,4.829,4.652,4.652,0,0,0,4.829,4.888h10.6v35.1a5.535,5.535,0,1,0,11.012,0V13.874H53.534A4.652,4.652,0,0,0,58.3,8.986a4.652,4.652,0,0,0-4.77-4.593Z" transform="translate(80.316 20.872)" fill="#1d252c"/>
    <path id="Path_241" data-name="Path 241" d="M29.731,4.4a5.182,5.182,0,0,0-5.476,5.535V49.21a5.535,5.535,0,1,0,11.012,0V9.933A5.241,5.241,0,0,0,29.731,4.4Z" transform="translate(118.428 20.867)" fill="#1d252c"/>
    <path id="Path_242" data-name="Path 242" d="M69.62,37.311,57.313,24.827v-.648L69.09,11.99a3.769,3.769,0,0,0,.942-2.179,2.886,2.886,0,0,0-1-2.355,3.239,3.239,0,0,0-2.12-.766,3.533,3.533,0,0,0-2.473,1l-12.425,13.6A5.005,5.005,0,0,0,50.6,24.533a5.359,5.359,0,0,0,1.472,3.592L64.733,42.258a3.592,3.592,0,0,0,2.591,1,3.415,3.415,0,0,0,2.3-.942,2.709,2.709,0,0,0,1-2.355A3.828,3.828,0,0,0,69.62,37.311Z" transform="translate(247.367 32.119)" fill="#1d252c"/>
    <path id="Path_243" data-name="Path 243" d="M62.324,6.692a13.544,13.544,0,0,0-11.012,6.772V9.813a3.121,3.121,0,1,0-6.242,0V40.14a3.121,3.121,0,0,0,6.242,0V23.71A9.893,9.893,0,0,1,61.794,12.993a3.18,3.18,0,0,0,3.415-3.415,2.768,2.768,0,0,0-2.885-2.885Z" transform="translate(220.333 32.116)" fill="#1d252c"/>
    <path id="Path_244" data-name="Path 244" d="M52.608,4.4A2.885,2.885,0,0,0,49.487,7.52V51.39a3.121,3.121,0,1,0,5.889,0V7.52A2.885,2.885,0,0,0,52.608,4.4Z" transform="translate(241.061 20.866)" fill="#1d252c"/>
    <path id="Path_245" data-name="Path 245" d="M51.173,4.416H35.686a3.062,3.062,0,0,0-3.3,3.3V51.231a3.3,3.3,0,0,0,6.6,0V35.272h12.19A14.722,14.722,0,0,0,66.9,19.785,14.781,14.781,0,0,0,51.173,4.416Zm0,24.85H38.984V10.422h12.19A8.774,8.774,0,0,1,60.3,19.785a8.774,8.774,0,0,1-9.127,9.481Z" transform="translate(158.287 20.849)" fill="#1d252c"/>
    <path id="Path_246" data-name="Path 246" d="M53.1,6.749a17.136,17.136,0,0,0-11.777,4.3,2.885,2.885,0,0,0,0,4c1,1.178,2.591,1.119,4.063,0a11.777,11.777,0,0,1,7.655-2.591,7.891,7.891,0,0,1,8.48,8.3v.707H51.571a11.247,11.247,0,0,0-12.72,10.659A10.717,10.717,0,0,0,50.276,43.376a12.955,12.955,0,0,0,11.13-5.889v2.591a3.121,3.121,0,0,0,6.242,0V20.352A13.191,13.191,0,0,0,53.1,6.749ZM51.925,38.018c-4.358,0-6.831-2.3-6.831-5.889s2.414-5.889,6.478-5.889h9.834v1.884a9.363,9.363,0,0,1-9.481,9.893Z" transform="translate(189.865 32.06)" fill="#1d252c"/>
    <path id="Path_247" data-name="Path 247" d="M15.723,4.419,9.834,6.009,8.244.12,0,8.659H0L6.3,32.213h0l7.066-1.884a8.185,8.185,0,0,1,7.184-7.714Z" fill="#f5333f"/>
    <path id="Path_248" data-name="Path 248" d="M25.936,14.416,13.629,2.109a5.476,5.476,0,0,0-7.714,0,5.418,5.418,0,0,0,0,7.655L16.809,20.6H29.175a11.247,11.247,0,0,1-3.239-6.183Z" transform="translate(21.173 1.956)" fill="#f5333f"/>
    <circle id="Ellipse_26" data-name="Ellipse 26" cx="8.126" cy="8.126" r="8.126" transform="translate(49.701 6.598)" fill="#f5333f"/>
    <path id="Path_249" data-name="Path 249" d="M12.555,48.1a5.428,5.428,0,1,0,10.482-2.827h0l-5.123-19.2,4.417-4.417L19.091,9.53,8.315,20.66A5.535,5.535,0,0,0,6.9,25.9l5.889,22.2Z" transform="translate(32.906 46.003)" fill="#f5333f"/>
    <path id="Path_250" data-name="Path 250" d="M45.541,50.547,36.06,15.215H8.148a5.418,5.418,0,1,1,0-10.835h32.27a5.418,5.418,0,0,1,5.241,4l8.067,30.209,9.481-9.6a5.418,5.418,0,0,1,7.655,0,5.476,5.476,0,0,1,0,7.714L54.609,52.962h0a5.889,5.889,0,0,1-5.241,1.413,5.476,5.476,0,0,1-3.828-3.828Z" transform="translate(13.346 20.826)" fill="#f5333f"/>
  </g>
</svg>
