<svg id="btn-user" xmlns="http://www.w3.org/2000/svg" width="68" height="25" viewBox="0 0 68 25">
  <rect id="Rectangle_334" data-name="Rectangle 334" width="68" height="25" rx="12.5" fill="#ec3748"/>
  <path id="user" d="M7.878,6.827a3.828,3.828,0,0,1,3.828,3.828c0,2.386-7.657,2.386-7.657,0A3.828,3.828,0,0,1,7.878,6.827Zm0,.7a3.132,3.132,0,0,0-3.132,3.132c0,.58,1.295,1.07,3.009,1.093h.124c1.776,0,3.132-.5,3.132-1.094A3.132,3.132,0,0,0,7.878,7.523Zm0-4.733A1.879,1.879,0,1,1,6,4.669,1.879,1.879,0,0,1,7.878,2.79Zm0,.7A1.183,1.183,0,1,0,9.062,4.669,1.183,1.183,0,0,0,7.878,3.486Z" transform="translate(3.526 4.786)" fill="#fafafa" fill-rule="evenodd"/>
</svg>
