<svg id="call" xmlns="http://www.w3.org/2000/svg" width="20" height="20" viewBox="0 0 20 20">
  <path id="Path_97" data-name="Path 97" d="M0,0H20V20H0Z" fill="none"/>
  <path id="Path_98" data-name="Path 98" d="M16.23,12.629a8.9,8.9,0,0,1-2.746-.436.76.76,0,0,0-.786.187l-1.221,1.532A11.809,11.809,0,0,1,6.119,8.6L7.636,7.309a.794.794,0,0,0,.187-.793A8.674,8.674,0,0,1,7.387,3.77.777.777,0,0,0,6.617,3H3.926C3.506,3,3,3.187,3,3.77A13.34,13.34,0,0,0,16.23,17a.816.816,0,0,0,.77-.918V13.4A.777.777,0,0,0,16.23,12.629Z" fill="#979797"/>
</svg>
