<svg id="Central_Administrator" data-name="Central Administrator" xmlns="http://www.w3.org/2000/svg" width="11.496" height="14.891" viewBox="0 0 11.496 14.891">
  <circle id="Ellipse_1" data-name="Ellipse 1" cx="2.82" cy="2.82" r="2.82" transform="translate(2.932)" fill="#b0b0b0"/>
  <path id="Path_3" data-name="Path 3" d="M18.415,23.988c-.016-.048-.032-.093-.048-.141a.564.564,0,0,0-.056-.149,6.156,6.156,0,0,0-5.583-4.338,6.139,6.139,0,0,0-5.567,4.314c-.048.125-.093.25-.133.383a1.494,1.494,0,0,0-.048.375,1.8,1.8,0,0,0,.25.906.061.061,0,0,0,.016.032c.729,1.269,2.9,2.2,5.482,2.2,2.554,0,4.721-.906,5.466-2.167a1.873,1.873,0,0,0,.282-.971A1.545,1.545,0,0,0,18.415,23.988Z" transform="translate(-6.98 -12.678)" fill="#b0b0b0"/>
</svg>
