<svg id="Configuration" xmlns="http://www.w3.org/2000/svg" width="16.086" height="16.087" viewBox="0 0 16.086 16.087">
  <path id="tools" d="M1,0,0,1,2.2,4.081a1,1,0,0,0,.815.419h.07a1,1,0,0,1,.708.293L6.468,7.468,3.851,10.122a3,3,0,1,0,2.027,2.027L8.532,9.532,9.5,10.5l-.305.914a1,1,0,0,0,.242,1.023l3.356,3.356a1,1,0,0,0,1.414,0l1.586-1.586a1,1,0,0,0,0-1.414L12.437,9.437A1,1,0,0,0,11.414,9.2l-.914.3-.96-.96L12.22,5.9A3,3,0,0,0,16,3a2.967,2.967,0,0,0-.1-.777l-2.14,2.141L12,4l-.364-1.757L13.777.1A3,3,0,0,0,10.1,3.782L7.462,6.46,4.793,3.793A1,1,0,0,1,4.5,3.086V3.015A1,1,0,0,0,4.081,2.2Zm9.646,10.646a.5.5,0,0,1,.708,0l3,3a.5.5,0,1,1-.708.708l-3-3a.5.5,0,0,1,0-.708ZM3,11l.471.242L4,11.268l.287.445L4.732,12l.026.529L5,13l-.242.471L4.732,14l-.445.287L4,14.732l-.529.026L3,15l-.471-.242L2,14.732l-.287-.445L1.268,14l-.026-.529L1,13l.242-.471L1.268,12l.445-.287L2,11.268l.529-.026Z" transform="translate(0 0.001)" fill="#adadad"/>
</svg>
