<svg id="edit" xmlns="http://www.w3.org/2000/svg" width="19" height="19" viewBox="0 0 19 19">
  <path id="edit-2" data-name="edit" d="M11.971,5.616a.712.712,0,0,1,0,1.425H8.114A2.135,2.135,0,0,0,5.982,9.177V19.719a2.135,2.135,0,0,0,2.132,2.137h10.52a2.135,2.135,0,0,0,2.132-2.137V15.776a.711.711,0,1,1,1.422,0v3.942a3.558,3.558,0,0,1-3.554,3.561H8.114A3.558,3.558,0,0,1,4.56,19.719V9.177A3.558,3.558,0,0,1,8.114,5.616ZM21.9,4.739,23.1,5.948a1.569,1.569,0,0,1,0,2.216l-6.849,6.862a1.555,1.555,0,0,1-.6.378l-2.875.977a1,1,0,0,1-1.265-1.255l.951-2.908a1.575,1.575,0,0,1,.379-.62l6.845-6.858a1.561,1.561,0,0,1,2.212,0Zm-8.344,7.352-.109.109a.7.7,0,0,0-.173.283l-.95,2.907a.138.138,0,0,0,0,.09.142.142,0,0,0,.18.089l2.875-.977a.736.736,0,0,0,.275-.171l.114-.114-2.212-2.216Zm6.735-6.749-6.132,6.145L16.367,13.7,22.5,7.558a.713.713,0,0,0,0-1.007L21.293,5.342a.709.709,0,0,0-1.006,0Z" transform="translate(-4.56 -4.28)" fill="#ec3748" fill-rule="evenodd"/>
</svg>
