<svg id="Holiday" xmlns="http://www.w3.org/2000/svg" width="20" height="20" viewBox="0 0 20 20">
  <path id="Path_24" data-name="Path 24" d="M0,0H20V20H0Z" fill="rgba(0,0,0,0)"/>
  <path id="Path_25" data-name="Path 25" d="M11.754,12.993l1.236-1.236,5.567,5.569-1.234,1.233ZM15.465,8.04l2.472-2.472A8.747,8.747,0,0,0,5.576,5.55,9.654,9.654,0,0,1,15.465,8.04ZM5.55,5.576a8.746,8.746,0,0,0,.017,12.361L8.04,15.465A9.653,9.653,0,0,1,5.55,5.576Zm.017-.017-.009.009c-.328,2.6,1.011,5.947,3.717,8.661l4.953-4.953C11.523,6.57,8.169,5.23,5.567,5.559Z" transform="translate(-0.78 -0.78)" fill="#b6b6b6"/>
</svg>
