<svg id="In_transit" data-name="In transit" xmlns="http://www.w3.org/2000/svg" width="20" height="20" viewBox="0 0 20 20">
  <path id="Path_33" data-name="Path 33" d="M0,0H20V20H0Z" fill="none"/>
  <path id="Path_34" data-name="Path 34" d="M16.942,7.459H14.425V4H2.678A1.709,1.709,0,0,0,1,5.729v9.512H2.678A2.553,2.553,0,0,0,5.2,17.835a2.553,2.553,0,0,0,2.517-2.594h5.034a2.518,2.518,0,1,0,5.034,0h1.678V10.918ZM5.2,16.538a1.3,1.3,0,1,1,1.259-1.3A1.277,1.277,0,0,1,5.2,16.538ZM16.522,8.756l1.645,2.162H14.425V8.756Zm-1.259,7.782a1.3,1.3,0,1,1,1.259-1.3A1.277,1.277,0,0,1,15.264,16.538Z" transform="translate(-0.229 -0.917)" fill="#bcbcbc"/>
</svg>
