<svg id="Item_Class" data-name="Item Class" xmlns="http://www.w3.org/2000/svg" width="14.156" height="15.091" viewBox="0 0 14.156 15.091">
  <path id="Path_15" data-name="Path 15" d="M9.026,25.7H8.092A1.164,1.164,0,0,1,6.93,24.538V14.8A1.164,1.164,0,0,1,8.092,13.64h.929A1.164,1.164,0,0,1,10.184,14.8v9.736A1.16,1.16,0,0,1,9.026,25.7Z" transform="translate(-6.93 -10.61)" fill="#adadad"/>
  <path id="Path_16" data-name="Path 16" d="M29.087,25.493l-.8.179a1.216,1.216,0,0,1-1.45-.924l-2.086-9.4a1.216,1.216,0,0,1,.924-1.45l.8-.179a1.216,1.216,0,0,1,1.45.924l2.086,9.4A1.216,1.216,0,0,1,29.087,25.493Z" transform="translate(-15.884 -10.636)" fill="#adadad"/>
  <path id="Path_17" data-name="Path 17" d="M18.086,22.63H16.968A1.066,1.066,0,0,1,15.9,21.563V8.608A1.066,1.066,0,0,1,16.968,7.54h1.118a1.066,1.066,0,0,1,1.068,1.068V21.563A1.069,1.069,0,0,1,18.086,22.63Z" transform="translate(-11.444 -7.54)" fill="#adadad"/>
</svg>
