<svg xmlns="http://www.w3.org/2000/svg" width="14.64" height="16.56" viewBox="0 0 14.64 16.56">
  <path id="locked" d="M11.8,3.725l.2,0a3.96,3.96,0,0,1,3.955,3.762l.005.2V9.24h.36a3,3,0,0,1,3,3v5.04a3,3,0,0,1-3,3H7.68a3,3,0,0,1-3-3V12.24a3,3,0,0,1,3-3h.36V7.68A3.96,3.96,0,0,1,11.8,3.725L12,3.72ZM12,12.48a1.2,1.2,0,0,0-.48,2.3v1.54a.48.48,0,0,0,.96,0V14.78a1.2,1.2,0,0,0-.48-2.3Zm.168-7.555L12,4.92A2.76,2.76,0,0,0,9.245,7.512l0,.168V9.24h5.52V7.68a2.76,2.76,0,0,0-2.592-2.755L12,4.92Z" transform="translate(-4.68 -3.72)" fill="#b0b0b0" fill-rule="evenodd"/>
</svg>
