<svg id="Logistic_Area" data-name="Logistic Area" xmlns="http://www.w3.org/2000/svg" width="10" height="16" viewBox="0 0 10 16">
  <path id="geo-fill" d="M4,4A4,4,0,1,1,8.5,7.969V13.5a.5.5,0,0,1-1,0V7.97A4,4,0,0,1,4,4Zm2.493,8.574a.5.5,0,0,1-.411.575,5.686,5.686,0,0,0-1.655.493,1.319,1.319,0,0,0-.37.265A.3.3,0,0,0,4,14v0l0,.008a.147.147,0,0,0,.016.033.617.617,0,0,0,.145.15,2.741,2.741,0,0,0,.813.4A10,10,0,0,0,8,15a9.969,9.969,0,0,0,3.024-.414,2.766,2.766,0,0,0,.813-.4.619.619,0,0,0,.146-.15A.148.148,0,0,0,12,14.008L12,14v0a.3.3,0,0,0-.057-.09,1.318,1.318,0,0,0-.37-.264,5.7,5.7,0,0,0-1.655-.493.5.5,0,1,1,.164-.986,6.639,6.639,0,0,1,1.957.594A1.521,1.521,0,0,1,13,14a1.269,1.269,0,0,1-.544.977,3.734,3.734,0,0,1-1.116.558A10.959,10.959,0,0,1,8,16a10.959,10.959,0,0,1-3.34-.465,3.734,3.734,0,0,1-1.116-.558A1.269,1.269,0,0,1,3,14a1.522,1.522,0,0,1,.961-1.243,6.639,6.639,0,0,1,1.957-.594.5.5,0,0,1,.575.411Z" transform="translate(-3 0)" fill="#adadad" fill-rule="evenodd"/>
</svg>
