<svg id="Logistic_Company" data-name="Logistic Company" xmlns="http://www.w3.org/2000/svg" width="20" height="20" viewBox="0 0 20 20">
  <g id="Group_66" data-name="Group 66">
    <rect id="Rectangle_41" data-name="Rectangle 41" width="20" height="20" fill="none"/>
  </g>
  <g id="Group_67" data-name="Group 67" transform="translate(3 3)">
    <path id="Path_46" data-name="Path 46" d="M13.889,9.222V3H6.111V6.111H3V17H9.222V13.889h1.556V17H17V9.222ZM6.111,15.444H4.556V13.889H6.111Zm0-3.111H4.556V10.778H6.111Zm0-3.111H4.556V7.667H6.111Zm3.111,3.111H7.667V10.778H9.222Zm0-3.111H7.667V7.667H9.222Zm0-3.111H7.667V4.556H9.222Zm3.111,6.222H10.778V10.778h1.556Zm0-3.111H10.778V7.667h1.556Zm0-3.111H10.778V4.556h1.556Zm3.111,9.333H13.889V13.889h1.556Zm0-3.111H13.889V10.778h1.556Z" transform="translate(-3 -3)" fill="#adadad"/>
  </g>
</svg>
