<svg id="Member_Type" data-name="Member Type" xmlns="http://www.w3.org/2000/svg" width="20" height="20" viewBox="0 0 20 20">
  <rect id="Rectangle_47" data-name="Rectangle 47" width="20" height="20" fill="none"/>
  <path id="Path_64" data-name="Path 64" d="M11.5,2h-6A1.557,1.557,0,0,0,4,3.6V16.4A1.557,1.557,0,0,0,5.5,18h9A1.557,1.557,0,0,0,16,16.4V6.8ZM10,8.4a1.6,1.6,0,0,1,0,3.2,1.6,1.6,0,0,1,0-3.2Zm3,6.4H7v-.456a1.615,1.615,0,0,1,.915-1.48,4.917,4.917,0,0,1,4.17,0A1.615,1.615,0,0,1,13,14.344Z" fill="#b6b6b6"/>
</svg>
