<svg id="Opac-loan" xmlns="http://www.w3.org/2000/svg" width="9.337" height="8.063" viewBox="0 0 9.337 8.063">
  <path id="Path_173" data-name="Path 173" d="M10.373,5.818l1.784,1.759L10.373,9.353V8.645a.336.336,0,0,0-.336-.336H6.721V7.254a.336.336,0,0,0-.576-.234l-2.435,2.5a.47.47,0,0,0,0,.659l2.435,2.459a.336.336,0,0,0,.574-.236V11.24H8.246a.336.336,0,0,0,0-.672H6.385a.336.336,0,0,0-.336.336v.685L4.329,9.851l1.72-1.77v.564a.336.336,0,0,0,.336.336H9.7v1.181a.336.336,0,0,0,.573.238l2.5-2.493a.47.47,0,0,0,0-.665l-2.5-2.466a.336.336,0,0,0-.571.239V6.174H8.288a.336.336,0,1,0,0,.672h1.749a.336.336,0,0,0,.336-.336V5.818Z" transform="translate(-3.576 -4.679)" fill="#595959"/>
  <path id="Path_174" data-name="Path 174" d="M8.262,11.783h4.057v-.475a.269.269,0,0,0-.269-.269H7.993v.475A.269.269,0,0,0,8.262,11.783Z" transform="translate(-5.521 -7.48)" fill="red"/>
</svg>
