<svg xmlns="http://www.w3.org/2000/svg" width="9.399" height="7.255" viewBox="0 0 9.399 7.255">
  <g id="Opac-DOrder" transform="translate(0.054 0.25)">
    <path id="Path_34" data-name="Path 34" d="M9.071,5.751H7.8V4H1.85A.865.865,0,0,0,1,4.876V9.691h.85A1.293,1.293,0,0,0,3.124,11,1.293,1.293,0,0,0,4.4,9.691H6.947a1.275,1.275,0,1,0,2.549,0h.85V7.5Zm-5.947,4.6a.657.657,0,1,1,.637-.657A.646.646,0,0,1,3.124,10.348Zm5.735-3.94L9.692,7.5H7.8V6.408Zm-.637,3.94a.657.657,0,1,1,.637-.657A.646.646,0,0,1,8.222,10.348Z" transform="translate(-1 -4)" fill="#595959"/>
    <path id="Rectangle_171" data-name="Rectangle 171" d="M1,0H6A0,0,0,0,1,6,0V3A0,0,0,0,1,6,3H0A0,0,0,0,1,0,3V1A1,1,0,0,1,1,0Z" transform="translate(0.229 0.087)" fill="#fff"/>
    <path id="Path_200" data-name="Path 200" d="M12155.326,4386.413v-1.952a.784.784,0,0,1,.813-.885h4.966" transform="translate(-12154.876 -4383.326)" fill="none" stroke="#ec3748" stroke-width="1"/>
  </g>
</svg>
