<svg id="Opac-BorrowHis" xmlns="http://www.w3.org/2000/svg" width="10.638" height="11.121" viewBox="0 0 10.638 11.121">
  <g id="borrowing-history">
    <path id="Path_147" data-name="Path 147" d="M13.62,6.695v6.612a.564.564,0,0,1-.564.564H7.415a1.209,1.209,0,0,1-1.209-1.209V6.215A1.209,1.209,0,0,1,7.415,5.006h6.608a.4.4,0,0,0,0-.806H7.415A2.015,2.015,0,0,0,5.4,6.215v6.447a2.015,2.015,0,0,0,2.015,2.015h5.641a1.37,1.37,0,0,0,1.37-1.37V6.614a.726.726,0,0,0-.725-.725H7.485a.4.4,0,0,0,0,.806Z" transform="translate(-5.4 -4.2)" fill="#595959"/>
    <g id="Ellipse_21" data-name="Ellipse 21" transform="translate(4.513 4.996)" fill="red" stroke="#fff" stroke-width="1.2">
      <circle cx="3.062" cy="3.062" r="3.062" stroke="none"/>
      <circle cx="3.062" cy="3.062" r="2.462" fill="none"/>
    </g>
    <path id="Path_148" data-name="Path 148" d="M16.56,14.773v1.039a.322.322,0,0,0,.322.322h.937" transform="translate(-9.065 -7.673)" fill="none" stroke="#fff" stroke-linecap="round" stroke-width="1.2" fill-rule="evenodd"/>
  </g>
</svg>
