<svg id="Opac-holds" xmlns="http://www.w3.org/2000/svg" width="9.337" height="9.949" viewBox="0 0 9.337 9.949">
  <path id="Path_175" data-name="Path 175" d="M6.593,5.64H12.1a1.913,1.913,0,0,1,1.913,1.913v5.51A1.913,1.913,0,0,1,12.1,14.977H6.593A1.913,1.913,0,0,1,4.68,13.064V7.553A1.913,1.913,0,0,1,6.593,5.64Zm0,.765A1.148,1.148,0,0,0,5.445,7.553v5.51a1.148,1.148,0,0,0,1.148,1.148H12.1a1.148,1.148,0,0,0,1.148-1.148V7.553A1.148,1.148,0,0,0,12.1,6.405Z" transform="translate(-4.68 -5.028)" fill="#595959"/>
  <path id="Path_176" data-name="Path 176" d="M5.88,9.36h7.806v.765H5.88Z" transform="translate(-5.115 -6.375)" fill="red" fill-rule="evenodd"/>
  <path id="Path_177" data-name="Path 177" d="M9.6,10.9a.383.383,0,0,0-.512.569l.684.617a.382.382,0,0,0,.519-.005l1.631-1.536a.383.383,0,1,0-.524-.557l-1.375,1.295L9.6,10.9ZM8.445,6.254V5.063a.383.383,0,1,0-.765,0V6.254a.383.383,0,1,0,.765,0Zm4.9,0V5.063a.383.383,0,1,0-.765,0V6.254a.383.383,0,1,0,.765,0Z" transform="translate(-5.767 -4.68)" fill="#595959"/>
</svg>
