<svg id="Open_Date_Time" data-name="Open Date/Time" xmlns="http://www.w3.org/2000/svg" width="20" height="20" viewBox="0 0 20 20">
  <path id="Path_35" data-name="Path 35" d="M0,0H20V20H0Z" fill="none"/>
  <path id="Path_36" data-name="Path 36" d="M7.667,9.2H6.111v1.6H7.667Zm3.111,0H9.222v1.6h1.556Zm3.111,0H12.333v1.6h1.556Zm1.556-5.6h-.778V2H13.111V3.6H6.889V2H5.333V3.6H4.556A1.571,1.571,0,0,0,3.008,5.2L3,16.4A1.578,1.578,0,0,0,4.556,18H15.444A1.583,1.583,0,0,0,17,16.4V5.2A1.583,1.583,0,0,0,15.444,3.6Zm0,12.8H4.556V7.6H15.444Z" fill="#adadad"/>
</svg>
