<svg id="Prepare_for_transis" data-name="Prepare for transis" xmlns="http://www.w3.org/2000/svg" width="16.547" height="19" viewBox="0 0 16.547 19">
  <g id="Group_179" data-name="Group 179">
    <path id="Path_93" data-name="Path 93" d="M276.414.534A1.072,1.072,0,0,0,275.489,0h-3.973V4.7h7.307Z" transform="translate(-262.667 0)" fill="#bcbcbc"/>
    <path id="Path_94" data-name="Path 94" d="M51.138,0h-4.01A1.072,1.072,0,0,0,46.2.535L43.8,4.7h7.337V0Z" transform="translate(-43.402)" fill="#bcbcbc"/>
    <path id="Path_95" data-name="Path 95" d="M33.057,156.648v11.878a1.311,1.311,0,0,0,1.31,1.309H48.294a1.311,1.311,0,0,0,1.31-1.309V156.648Zm10.8,4.995-2.88,2.88a.556.556,0,0,1-.787,0l-1.35-1.35a.557.557,0,0,1,.788-.787l.956.956,2.487-2.487a.557.557,0,1,1,.787.787Z" transform="translate(-33.057 -150.835)" fill="#bcbcbc"/>
  </g>
</svg>
