<svg id="user-line" xmlns="http://www.w3.org/2000/svg" width="10.107" height="12.745" viewBox="0 0 10.107 12.745">
  <path id="user" d="M9.1,8.119a5.053,5.053,0,0,1,5.054,5.054c0,3.15-10.107,3.15-10.107,0A5.053,5.053,0,0,1,9.1,8.119Zm0,.919a4.134,4.134,0,0,0-4.135,4.135c0,.766,1.709,1.413,3.971,1.443H9.1c2.344,0,4.135-.66,4.135-1.444A4.134,4.134,0,0,0,9.1,9.038Zm0-6.248A2.481,2.481,0,1,1,6.623,5.271,2.481,2.481,0,0,1,9.1,2.79Zm0,.919a1.562,1.562,0,1,0,1.562,1.562A1.562,1.562,0,0,0,9.1,3.709Z" transform="translate(-4.05 -2.79)" fill="#fafafa" fill-rule="evenodd"/>
</svg>
