<svg id="Waiting_for_payment" data-name="Waiting for payment" xmlns="http://www.w3.org/2000/svg" width="12.949" height="17" viewBox="0 0 12.949 17">
  <g id="Group_181" data-name="Group 181">
    <path id="Path_96" data-name="Path 96" d="M70.153,6.734A7.291,7.291,0,0,0,72.943,1h1.006V0H61V1h1.006A7.291,7.291,0,0,0,64.8,6.734c.756.689,1.184,1.111,1.184,1.766s-.428,1.077-1.184,1.766A7.291,7.291,0,0,0,62.006,16H61v1H73.949V16H72.943a7.291,7.291,0,0,0-2.79-5.738C69.4,9.577,68.969,9.155,68.969,8.5S69.4,7.423,70.153,6.734Zm-3.176,5.5a2.518,2.518,0,0,0-.454.139l-3.051,1.262a6.8,6.8,0,0,1,2-2.633,3.4,3.4,0,0,0,1.509-2.5ZM69.482,11a6.8,6.8,0,0,1,2,2.632l-3.051-1.262a2.518,2.518,0,0,0-.454-.139V8.5A3.4,3.4,0,0,0,69.482,11ZM63.454,3.32A7.38,7.38,0,0,1,63,1h8.942a7.379,7.379,0,0,1-.451,2.324Z" transform="translate(-61)" fill="#bcbcbc"/>
  </g>
</svg>
