<svg id="worldwide" xmlns="http://www.w3.org/2000/svg" width="15.503" height="15.5" viewBox="0 0 15.503 15.5">
  <g id="Group_4" data-name="Group 4">
    <path id="Path_7" data-name="Path 7" d="M7.754.05A7.75,7.75,0,0,0,.629,4.75l-.1.032.037.112A7.749,7.749,0,1,0,7.754.05Zm6.079,11.657-.4-.4v-.926a.258.258,0,0,0-.026-.115L12.4,8.256V7.283a.258.258,0,0,0-.115-.215l-.775-.517a.258.258,0,0,0-.207-.036l-.949.237L8.762,6.069,8.543,4.533l.608-.608h1.3l.439.66a.258.258,0,0,0,.173.111l1.55.258a.256.256,0,0,0,.124-.01l1.428-.476A7.207,7.207,0,0,1,13.833,11.707ZM12.768,2.6l-.42.28-1.171-.234-.76-.253a.254.254,0,0,0-.144-.006l-.96.24-.421-.14L9.2,1.858h.874a.258.258,0,0,0,.115-.027l.894-.447A7.26,7.26,0,0,1,12.768,2.6ZM4.923,1.144l.62.413a.258.258,0,0,0,.1.04L6.9,1.805l-.122.366-.652.218a.258.258,0,0,0-.14.112L5.239,3.737l-1.192.715L2.291,4.7a.258.258,0,0,0-.222.255v.775a.258.258,0,0,0,.076.183l.441.441V6.8L1.511,6.084l-.39-1.169A7.275,7.275,0,0,1,4.923,1.144Zm-.735,8.47L3.019,9.38l-.434-.866V7.907l.963-.963.356.713a.258.258,0,0,0,.231.143H5.8l.7,1.166a.258.258,0,0,0,.221.125h.718L7.256,10l-.978.978a.258.258,0,0,0-.076.183V11.8l-.93.7a.258.258,0,0,0-.1.207v.933l-.321-.106L4.394,12.4V9.867A.258.258,0,0,0,4.187,9.614Zm-.777,3.971a7.232,7.232,0,0,1-2.576-7.9l.215.644a.258.258,0,0,0,.1.133l1.288.858-.294.294a.258.258,0,0,0-.076.183v.775a.258.258,0,0,0,.027.115l.517,1.033a.258.258,0,0,0,.181.138l1.085.217V12.45a.258.258,0,0,0,.018.1l.517,1.292a.258.258,0,0,0,.158.149l.775.258a.254.254,0,0,0,.08.013A.258.258,0,0,0,5.685,14V12.838l.93-.7a.258.258,0,0,0,.1-.207v-.668l.958-.958a.259.259,0,0,0,.071-.132l.258-1.292a.258.258,0,0,0-.253-.309H6.865l-.7-1.166a.258.258,0,0,0-.221-.125H4.3l-.444-.89a.258.258,0,0,0-.19-.14.253.253,0,0,0-.224.072L3.1,6.66V6.25a.258.258,0,0,0-.076-.183l-.441-.441V5.182l1.587-.227a.26.26,0,0,0,.1-.034L5.56,4.146a.258.258,0,0,0,.088-.088l.726-1.21.684-.228a.256.256,0,0,0,.163-.163l.258-.775a.258.258,0,0,0-.2-.336L5.783,1.1,5.52.921a7.213,7.213,0,0,1,4.968.185l-.472.236H9.044a.258.258,0,0,0-.233.143L8.295,2.518a.258.258,0,0,0,.116.346l.034.014.775.258a.254.254,0,0,0,.144.006l.96-.24.7.234.031.008L12.35,3.4a.257.257,0,0,0,.194-.038l.588-.392a7.288,7.288,0,0,1,.777,1.038l-1.271.424-1.376-.229-.455-.682a.258.258,0,0,0-.214-.115H9.044a.258.258,0,0,0-.183.076l-.775.775a.258.258,0,0,0-.073.219l.258,1.808a.258.258,0,0,0,.155.2l1.808.775a.255.255,0,0,0,.164.013l.923-.231.564.377v.9a.258.258,0,0,0,.026.115l1.008,2.012v.972a.258.258,0,0,0,.076.183l.54.541A7.232,7.232,0,0,1,3.411,13.585Z" transform="translate(0 -0.05)" fill="#979797"/>
  </g>
</svg>
